<svg width="310" height="317" viewBox="0 0 310 317" fill="none" xmlns="http://www.w3.org/2000/svg">
<g opacity="0.4">
<path d="M123.494 98.9973C119.666 110.369 112.734 130.524 109.119 142.736C108.462 144.958 103.882 157.15 106.9 160.023C110.679 163.621 119.99 165.804 124.923 165.628C133.152 165.333 137.846 153.184 142.599 146.158C146.385 140.561 148.624 135.547 150.747 129.001C153.469 120.615 150.248 121.129 144.793 119.159C141.407 117.937 139.166 116.66 135.982 120.692C133.667 123.623 131.064 127.443 129.865 131.166C128.682 134.841 130.6 133.76 131.772 135.666" stroke="#FA00FF" stroke-width="3" stroke-linecap="round"/>
<path d="M191.445 124.771C182.03 142.191 171.006 159.723 164.185 178.621C162.476 183.356 159.768 196.916 164.466 198.612C174.932 202.39 183.744 203.01 194.596 195.211C205.263 187.544 217.924 174.046 219.6 159.051C220.356 152.281 211.021 151.796 207.277 150.445C198.213 147.173 194.682 149.552 185.88 156.444" stroke="#FA00FF" stroke-width="3" stroke-linecap="round"/>
<path d="M158.587 50.5391C126.262 45.6117 85.2285 39.1053 59.0842 77.4122C53.5413 85.5338 50.2806 94.6108 48.2487 104.271C45.2018 118.758 41.2394 132.911 39.0483 147.522C37.1297 160.316 37.8146 174.038 39.95 185.964C41.1022 192.399 41.272 198.91 42.0495 205.433C43.4546 217.223 60.0116 227.231 66.2629 233.023C81.6154 247.248 97.3472 260.91 113.356 274.138C119.965 279.599 128.271 281.374 136.291 283.595C156.36 289.151 179 292.364 200.539 291.33C215.453 290.614 222.523 272.638 232.185 259.646C239.694 249.549 247.939 239.97 254.871 229.303C260.128 221.214 262.978 211.326 266.128 202.18C271.614 186.255 274.26 169.467 276.906 153.054C279.302 138.197 279.516 119.998 276.652 106.044C274.498 95.5465 264.832 89.0949 257.829 84.1421C237.095 69.4799 215.401 59.8188 191.924 51.3451C184.255 48.577 177.207 44.1581 168.808 46.605C163.903 48.034 161.294 49.7424 156.526 53.5378" stroke="#FA00FF" stroke-width="3" stroke-linecap="round"/>
<path d="M87.3311 139.585C86.4386 155.197 84.7237 171.666 88.8745 185.881C90.7809 192.411 91.5847 199.136 96.4355 203.164C101.588 207.443 106.036 211.969 110.662 217.031C117.982 225.041 124.456 229.079 134.072 232.549C149.901 238.263 166.554 247.415 183.563 248.958C191.909 249.715 204.617 244.909 209.426 234.799" stroke="#FA00FF" stroke-width="3" stroke-linecap="round"/>
<path d="M134.555 33.133C133.795 38.0671 131.01 53.6529 135.289 55.7827C138.76 57.5104 142.634 58.5031 146.274 59.8169C157.051 63.7069 166.009 57.7613 169.389 43.4886C171.554 34.3499 160.286 36.8458 155.124 36.9536C147.932 37.1037 145.562 46.9467 146.399 53.902C147.394 62.1771 147.605 68.8805 154.375 72.4432C163.06 77.0142 175.402 81.2291 185.656 76.3879C188.808 74.8997 203.877 51.0448 197.189 48.0478C194.998 47.0662 191.037 60.3639 190.429 62.864C188.773 69.667 190.288 77.0825 193.773 81.7434C197.555 86.7996 206.288 87.7903 211.718 89.6757C217.861 91.809 223.419 93.2244 229.31 87.2935C235.446 81.1161 247.958 75.417 251.546 66.6282C254.492 59.4133 246.695 58.5978 242.964 57.2932C235.898 54.8227 231.26 54.1577 225.051 61.9162C220.295 67.8602 217.876 74.8916 216.543 82.4774C212.848 103.507 239.435 102.108 250.671 101.865C260.892 101.643 257.338 89.4919 254.25 83.821C250.75 77.3928 245.263 78.8546 242.336 86.7279C238.416 97.2714 241.36 106.339 248.8 110.961C258.916 117.245 265.989 113.491 276.145 104.891C279.346 102.18 286.139 97.187 284.355 91.7765C283.132 88.0659 279.262 83.6052 276.124 82.2217C270.089 79.5611 265.011 96.9118 264.147 101.254C263.151 106.265 264.822 111.558 267.514 114.805C273.278 121.756 280.986 123.41 288.91 126.27C298.004 129.552 289.843 119.988 285.916 117.705" stroke="#FA00FF" stroke-width="3" stroke-linecap="round"/>
</g>
</svg>
