<svg width="56" height="111" viewBox="0 0 56 111" fill="none" xmlns="http://www.w3.org/2000/svg">
<path d="M1.52637 1.82495C5.48461 2.19302 19.3046 2.67426 23.8007 5.63082C28.6122 8.79473 25.6496 14.8842 24.0411 18.3304C23.0687 20.4137 14.7408 33.7161 13.4247 35.8374C11.3649 39.1575 8.64455 42.1716 7.33533 45.8529C6.85131 47.2138 10.3317 46.1753 11.662 45.6125C15.7799 43.8703 25.0724 39.1369 28.6482 37.2796C33.1863 34.9225 37.5444 32.208 42.1891 30.0685C44.7786 28.8757 43.5796 30.2647 42.4295 31.4707C34.6691 39.6074 25.8869 46.854 17.8716 54.7466C13.8883 58.6688 9.66269 62.3826 6.09341 66.685C3.35839 69.9817 6.47637 68.7105 8.85767 67.9269C21.8194 63.6615 34.2499 57.8048 47.0366 53.064C48.3087 52.5923 51.831 51.4915 51.0828 52.6233C47.5879 57.9097 40.0953 62.6137 35.4387 66.5247C30.3613 70.7892 26.1952 74.174 21.4571 78.7035C19.8267 80.2622 15.5896 83.6447 17.7314 84.3522C19.1213 84.8114 20.6696 84.363 22.1181 84.1519C25.0336 83.7271 27.9017 83.0235 30.7915 82.4493C37.9738 81.0222 41.6673 80.204 48.639 78.984C50.4902 78.66 55.5376 77.2782 54.2677 78.6635C53.4631 79.5412 52.3001 80.0072 51.2831 80.6265C48.8673 82.0976 46.3831 83.4545 43.9718 84.9331C36.4065 89.5723 31.8677 92.5256 24.642 97.7329C24.2715 97.9999 15.222 104.254 14.0056 106.707C13.0745 108.584 18.0453 108.269 20.1351 108.109C26.0718 107.654 31.7089 106.657 37.5619 105.565C39.8867 105.131 42.1943 104.609 44.5127 104.143C45.2791 103.988 46.0746 103.455 46.8162 103.702C47.361 103.884 45.7665 104.169 45.2338 104.383C44.057 104.857 42.8645 105.29 41.6883 105.765C31.322 109.95 46.6633 105.598 42.9903 109.271" stroke="black" stroke-width="3" stroke-linecap="round"/>
</svg>
