<svg width="51" height="66" viewBox="0 0 51 66" fill="none" xmlns="http://www.w3.org/2000/svg">
<path d="M26.6381 16.7896C23.6713 15.3768 19.6251 15.4503 16.4001 15.2487C14.9934 15.1608 13.4614 15.0464 12.1182 15.5747C8.89463 16.8424 6.91213 19.5022 5.86577 22.7161C5.30632 24.4344 5.13207 26.1159 5.03606 27.9017C4.93451 29.7905 4.15065 31.5478 3.76186 33.3837C3.04623 36.7631 2.36914 39.9639 2.36914 43.4291C2.36914 50.2961 3.34593 58.0759 10.2662 61.4012C13.6341 63.0195 17.9306 63.4606 21.6154 63.4606C25.5353 63.4606 29.8084 63.9324 33.4832 62.3346C36.6558 60.9552 39.3659 58.848 42.4618 57.3267C45.4271 55.8696 47.9174 52.8892 48.7587 49.6816C49.8462 45.5356 48.9515 41.3109 47.7067 37.31C47.0134 35.0814 46.4876 32.7578 45.5139 30.6279C44.5461 28.5108 42.9375 26.7974 41.7803 24.7903C40.8138 23.1142 40.1888 21.2577 39.38 19.5158C38.7172 18.0881 34.7928 17.4553 33.5276 16.9377C27.8427 14.6121 21.1968 14.9227 15.1703 14.9227" stroke="#FA00FF" stroke-width="3" stroke-linecap="round"/>
<path d="M13.8371 27.9908C12.9628 28.9198 13.3037 30.3761 13.3037 31.5763C13.3037 33.5982 13.8119 35.0194 15.052 36.6138C16.015 37.8519 20.7225 38.8951 21.8527 37.2806C22.7776 35.9592 23.6318 34.6382 23.7047 32.9987C23.7667 31.603 24.7833 29.9108 24.0899 28.5242C23.7006 27.7455 21.886 27.7499 21.186 28.1093C19.6248 28.911 19.4376 29.8744 19.4376 31.4578" stroke="#FA00FF" stroke-width="3" stroke-linecap="round"/>
<path d="M30.6387 31.991C28.9085 31.6449 29.2399 37.9683 30.0461 39.0731C31.3941 40.9203 36.215 40.0484 37.869 39.2509C40.2029 38.1257 41.3441 35.2237 40.4471 32.7318C40.0934 31.7493 38.1701 32.4256 37.4542 32.5244C35.8938 32.7396 35.125 33.2441 35.4392 34.6579" stroke="#FA00FF" stroke-width="3" stroke-linecap="round"/>
<path d="M14.9038 46.1257C14.9038 49.0485 15.4646 51.2029 18.3708 52.2596C19.241 52.5761 19.7413 53.043 20.7118 53.0597C21.6939 53.0767 22.678 53.0597 23.6602 53.0597C26.293 53.0597 28.2611 51.5879 30.4312 50.215C31.8478 49.3188 33.4942 48.7182 34.8612 47.8296C35.4251 47.4631 35.5862 46.7238 35.7058 46.1257" stroke="#FA00FF" stroke-width="3" stroke-linecap="round"/>
<path d="M21.8379 15.1895C21.8379 14.5672 21.8379 13.9449 21.8379 13.3226C21.8379 11.9343 22.3939 11.2275 22.8602 9.97416C23.3269 8.72004 23.1013 7.41863 23.1713 6.12195C23.2367 4.91246 23.9714 3.96895 23.9714 2.65495C23.9714 0.054351 26.7174 4.82568 27.0384 5.27742C27.9489 6.55893 29.3498 7.26705 30.2535 8.52217C31.8871 10.791 32.97 9.58693 34.4909 7.94434C34.7317 7.68428 37.6358 6.76735 37.7801 6.92202C38.5554 7.75267 38.4164 9.04227 38.7876 10.0631C39.0817 10.8717 39.1099 12.4339 40.1804 12.5077C40.8007 12.5505 43.9223 12.0549 44.1807 12.9078C44.5933 14.2694 44.24 16.1468 44.24 17.5601C44.24 19.5042 44.618 19.1114 46.2106 19.4862C48.4514 20.0134 44.761 24.1125 44.9512 25.1904C45.2147 26.6836 48.1007 27.1021 47.5885 29.0871C47.1831 30.658 45.5735 30.6321 45.5735 32.2577" stroke="#FA00FF" stroke-width="3" stroke-linecap="round"/>
</svg>
