<svg width="68" height="49" viewBox="0 0 68 49" fill="none" xmlns="http://www.w3.org/2000/svg">
<path d="M23.8101 21.9919C25.0316 20.3849 30.9648 12.8297 25.0615 13.2617C23.1129 13.4042 21.3385 14.3829 19.6311 15.2385C18.356 15.8775 15.8875 16.7289 14.9235 17.8147C14.5013 18.2902 13.6151 19.2957 12.8989 19.3117C12.1345 19.3287 11.4143 18.8809 10.6244 18.9701C8.40296 19.2208 5.25951 20.7503 3.91007 22.5916C2.09348 25.0702 0.515037 29.9319 2.34713 32.5514C3.00465 33.4915 3.02564 34.7528 3.43036 35.8043C3.99376 37.268 4.90339 38.5107 5.8084 39.7744C8.20781 43.1248 12.6173 45.7969 16.7336 46.3137C19.1416 46.616 22.398 46.9869 24.533 45.5167C25.9167 44.5639 27.0464 41.9117 27.5026 40.441C28.3436 37.7298 27.1748 34.4721 28.5045 31.8489C29.4227 30.0375 31.2923 29.8864 33.1278 29.6959C33.9893 29.6065 40.0345 27.6786 39.788 27.1543C39.286 26.0866 36.4119 25.822 35.5099 25.626C35.3538 25.5921 32.1504 25.2133 32.0466 24.8634C31.8339 24.147 36.0861 21.2623 36.3347 21.0711C39.5398 18.6061 42.8462 16.1758 46.2749 14.0279C47.9346 12.9881 50.1522 11.2666 52.1073 10.8147C53.3235 10.5336 54.7124 13.3704 55.316 14.1007C56.1441 15.1024 57.5953 15.3744 58.8101 14.9188C60.991 14.1007 64.7798 10.5864 65.1555 8.10527C65.2602 7.41335 66.2832 4.18872 65.8104 3.89774C63.7641 2.6382 60.7268 2.35579 58.4012 2.02395C56.7645 1.7904 55.0129 1.53303 53.3563 1.6876C52.2987 1.78627 48.8798 1.65774 49.5016 3.0966C50.4747 5.3481 48.3714 7.39565 47.171 9.14381C45.5718 11.4729 43.8759 12.4014 41.3227 13.8067C38.2273 15.5105 35.123 17.2302 32.2294 19.2661C31.4128 19.8407 30.7295 20.5501 29.8204 20.9975C28.3509 21.7207 26.6954 19.5631 25.9375 21.5966" stroke="#FA00FF" stroke-width="3" stroke-linecap="round"/>
</svg>
