<svg width="53" height="47" viewBox="0 0 53 47" fill="none" xmlns="http://www.w3.org/2000/svg">
<path d="M15.8117 29.2877C13.6414 28.774 10.8722 27.623 8.57317 27.7999C6.38762 27.968 4.52843 32.634 3.60816 34.236C2.08331 36.8903 1.19057 39.8585 2.8726 42.6949C4.08618 44.7413 7.35074 44.0008 9.40903 44.6341C14.2379 46.1199 18.1799 42.2678 20.1582 38.0475C21.2349 35.7504 20.5727 32.4345 20.6263 29.9898C20.708 26.2641 21.9102 22.4031 22.7661 18.7893C23.8274 14.3079 26.069 10.3515 27.5137 6.01736C27.8566 4.98877 27.9386 1.96958 29.1855 1.57059C30.0706 1.28736 31.2343 5.56367 31.3921 6.01736C32.4261 8.99004 33.4354 12.1053 36.0395 14.1085C38.2513 15.8098 41.0436 15.4459 43.6626 15.4459C46.1144 15.4459 48.5663 15.4459 51.0181 15.4459" stroke="#FA00FF" stroke-width="3" stroke-linecap="round"/>
</svg>
