<svg width="50" height="42" viewBox="0 0 50 42" fill="none" xmlns="http://www.w3.org/2000/svg">
<path d="M3.028 14.0097C3.24072 17.9086 3.97262 21.7514 4.1641 25.6441C4.24162 27.22 4.31211 28.771 3.7854 30.2999C3.30977 31.6804 2.51975 32.9555 2.16732 34.3724C2.06541 34.7821 1.86693 35.5942 2.13289 36.0115C2.89555 37.2082 6.62801 37.4204 7.75602 37.6204C11.1404 38.2204 14.5413 38.7212 17.8777 39.5109C18.6702 39.6984 19.2784 39.712 20.104 39.712C26.4535 39.712 32.9385 40.0387 39.28 39.7019C41.913 39.5621 44.5497 39.1633 47.1868 38.988C48.4459 38.9043 47.8738 37.9949 47.7835 37.1779C47.5741 35.282 47.6458 33.3682 47.6458 31.4663C47.6458 24.4709 47.6458 17.4755 47.6458 10.4801C47.6458 10.3206 47.798 9.17612 47.4622 8.98182C46.3558 8.34158 43.3594 8.76303 42.2063 8.7606C37.6756 8.75105 33.1257 8.65615 28.596 8.7606C24.1652 8.86277 19.7571 9.1226 15.3186 9.1226C12.7688 9.1226 10.2324 9.16064 7.68717 9.3036C6.43893 9.37372 4.76404 9.25171 3.54441 9.59522C2.69014 9.83582 3.87799 13.2485 3.96901 13.8689C4.17653 15.2832 4.06082 16.7489 4.06082 18.1727" stroke="#FA00FF" stroke-width="3" stroke-linecap="round"/>
<path d="M24.6328 16.3211C21.0095 16.8467 17.4987 17.7616 15.4936 20.595C15.1724 21.0488 14.7132 21.5743 14.582 22.1095C14.3577 23.0244 14.5603 24.1954 14.7833 25.0866C15.1355 26.495 16.3282 27.5821 17.3522 28.6654C18.0146 29.3662 18.8694 29.8531 19.8146 30.2111C21.5966 30.8861 23.3895 31.5298 25.1773 32.1924C26.5624 32.7057 27.7716 33.0326 29.2734 33.0326C30.458 33.0326 31.4259 32.1096 32.2863 31.4922C34.4698 29.9252 36.5135 27.5663 36.4534 24.9829C36.4141 23.2954 35.7864 21.9378 35.1038 20.3927C34.9519 20.0488 34.8866 19.9685 34.5533 19.7547C33.8127 19.2796 33.1056 18.7687 32.4461 18.2091C31.8772 17.7264 31.1122 17.6322 30.4395 17.2392C29.6271 16.7646 29.0805 16.1344 28.0481 16.1344C26.8798 16.1344 25.7836 16.3124 24.6328 16.1344" stroke="#FA00FF" stroke-width="3" stroke-linecap="round"/>
<path d="M18.9858 9.41245C19.298 7.98477 19.7479 6.46776 19.8382 5.00376C19.8746 4.41386 19.9064 3.52221 20.3236 3.02763C20.6693 2.61772 21.4567 2.34515 21.975 2.13552C22.453 1.94224 23.1389 2.03698 23.6501 2.03698C25.042 2.03698 26.689 1.86136 28.0185 2.27556C28.398 2.3938 29.4239 1.98905 29.6344 2.31187C29.9687 2.82445 29.7472 3.82083 29.7706 4.38136C29.7917 4.88805 29.8534 5.39387 29.8534 5.90106C29.8534 6.78114 30.329 7.67091 30.3862 8.5722" stroke="#FA00FF" stroke-width="3" stroke-linecap="round"/>
<path d="M40.0817 12.6801C39.6192 12.8115 39.1654 13.0176 38.7202 13.1677C38.5181 13.2358 38.5806 13.6142 38.59 13.7589C38.6099 14.0635 38.9121 14.0746 39.1819 14.0805C39.5897 14.0894 40.033 14.2947 40.425 14.2672C40.8189 14.2396 40.1434 13.6579 40.2947 13.6137C40.7241 13.4883 40.6144 13.1708 40.6144 12.8046C40.6144 12.5573 40.6625 12.2368 40.2592 12.3482C39.162 12.6511 37.6753 14.1474 37.856 15.2164C37.9162 15.5723 39.0469 15.343 39.3003 15.2838C39.7969 15.1678 39.9633 14.4529 39.9633 14.0805C39.9633 13.7704 39.5012 12.8988 39.3003 13.6189C39.2454 13.8158 39.3477 15.8464 39.9041 15.3357C40.455 14.83 39.6305 11.395 38.5308 12.3585C38.3403 12.5255 38.1345 12.8341 37.9034 12.9446C37.8384 12.9757 37.7375 12.9602 37.9389 12.9602C38.5951 12.9602 39.2213 13.0659 39.8686 13.1469" stroke="#FA00FF" stroke-width="3" stroke-linecap="round"/>
</svg>
