<svg width="34" height="40" viewBox="0 0 34 40" fill="none" xmlns="http://www.w3.org/2000/svg">
<path d="M12.795 32.179C8.67942 30.9586 4.93722 30.0878 4.93722 26.3575C4.93722 24.3638 4.93722 22.3701 4.93722 20.3764C4.93722 17.8678 4.63937 15.2473 5.07269 12.7549C5.43283 10.6835 6.70694 8.99263 7.73712 7.14982C8.5105 5.76639 9.72798 4.88692 10.7779 3.60677C11.2301 3.05539 11.766 3.15283 12.494 3.51563C13.0309 3.78323 12.795 4.61187 12.795 5.01943C12.795 7.25304 12.2797 9.8136 12.8552 11.9916C13.1946 13.2757 13.961 14.7561 13.4875 16.0359C13.1475 16.9547 13.3242 18.3965 12.6294 19.2144C12.3165 19.5828 11.9821 18.4333 11.9821 17.9954C11.9821 16.7746 11.9223 15.5743 12.2531 14.3726C12.5793 13.1877 12.8627 11.1422 15.1132 11.7296C18.5196 12.6185 18.3673 17.0152 17.4615 19.0093C17.3811 19.1864 16.8867 20.4772 16.8594 19.8068C16.8193 18.8214 16.8594 17.8308 16.8594 16.8448C16.8594 15.3562 16.2007 13.4574 17.9432 12.4929C21.942 10.2796 21.3252 14.7523 21.7668 16.4233C21.9906 17.2704 22.2786 17.8608 22.2786 18.7359C22.2786 19.2941 22.0402 18.7226 22.0227 18.4511C21.9524 17.3611 22.0076 16.2614 22.0076 15.1701C22.0076 13.7888 22.2861 12.6266 22.971 11.3764C23.6071 10.2155 23.0348 8.72242 23.4828 7.52577C24.021 6.08844 25.421 4.84097 26.2828 3.51563C27.0242 2.37531 28.495 1.5353 30.016 2.28524C31.455 2.99478 31.4912 4.39783 31.4912 5.54348C31.4912 7.44158 31.7621 9.33206 31.7621 11.2397C31.7621 12.871 31.7824 14.5611 31.0697 16.1157C30.6002 17.1397 30.2938 18.2328 29.7149 19.2258C29.1417 20.209 28.14 20.9625 27.7279 22.0283C26.9883 23.9408 26.1691 25.7921 24.6871 27.4625C23.5071 28.7926 22.2073 30.6351 20.6528 31.7233C20.2816 31.9832 19.6972 32.3546 19.1776 32.3841C17.6805 32.469 16.1923 32.5467 14.6917 32.4296C13.7308 32.3547 13.4183 31.8334 12.5843 31.6094C11.1212 31.2165 9.65953 31.0332 8.18872 30.5385" stroke="#FA00FF" stroke-width="3" stroke-linecap="round"/>
<path d="M5.75037 28.6929C5.75037 29.5938 5.76545 30.4863 5.59984 31.3815C5.22046 33.4324 3.54634 34.1814 2.00211 35.6423C1.9297 35.7108 3.74287 35.6481 4.12462 35.5397C4.99766 35.292 5.13829 35.0128 6.17187 35.2321C7.24535 35.4599 8.25931 35.8701 9.39327 35.8701C10.5594 35.8701 11.5989 36.5971 12.8555 36.6904C14.3638 36.8023 15.0144 37.9207 16.4683 37.9207C17.833 37.9207 17.3655 36.3943 17.7328 35.5283C18.3954 33.9661 19.1398 33.9408 20.9241 33.2043" stroke="#FA00FF" stroke-width="3" stroke-linecap="round"/>
<path d="M9.00201 32.7942C8.61241 33.0522 9.52482 32.5602 9.81488 32.9993" stroke="#FA00FF" stroke-width="3" stroke-linecap="round"/>
<path d="M14.1501 34.2296C13.821 34.6145 13.3346 34.6378 13.6082 34.8448" stroke="#FA00FF" stroke-width="3" stroke-linecap="round"/>
</svg>
