<svg width="159" height="191" viewBox="0 0 159 191" fill="none" xmlns="http://www.w3.org/2000/svg">
<path d="M2 110.309C2.97861 101.056 1.82425 91.667 2.84072 82.3952C3.86343 73.0665 5.91137 63.9794 7.15397 54.701C7.90279 49.1096 7.92158 43.5965 7.92158 37.9572C7.92158 33.5317 7.92158 29.1062 7.92158 24.6807C7.92158 18.9806 6.45157 13.4428 5.19838 8.00269C4.94681 6.91059 4.98008 5.8532 4.59526 4.79877C4.34376 4.10962 3.82598 3.52735 3.75454 2.77985C3.56782 0.826109 7.0418 3.0932 8.61609 3.6357C18.1118 6.9079 27.4578 12.8776 37.4929 11.47C40.0937 11.1051 42.5211 10.6221 45.0228 9.73632C49.1127 8.28828 53.4031 8.00185 57.5057 6.62018C60.4718 5.62124 63.3756 4.96101 66.4429 4.53543C68.3596 4.26949 70.1583 4.67701 71.4141 2.86763" stroke="white" stroke-width="3" stroke-linecap="round"/>
<path d="M58 188.566C62.5994 188.208 67.2397 188.566 71.8536 188.566C83.9648 188.566 96.076 188.566 108.187 188.566C110.758 188.566 113.329 188.566 115.9 188.566C119.278 188.566 122.388 187.601 125.696 186.854C131.654 185.509 137.993 186.196 144.046 186.196C145.429 186.196 145.946 186.95 147.134 187.71C148.337 188.481 149.896 188.171 151.21 188.171C153.469 188.171 153.405 182.564 153.732 180.798C154.201 178.267 154.964 175.799 155.341 173.249C155.747 170.493 155.718 167.691 155.907 164.91C156.225 160.245 157.305 155.797 157.351 151.085C157.433 142.646 157.351 134.2 157.351 125.76C157.351 114.174 157.351 102.587 157.351 91" stroke="white" stroke-width="3" stroke-linecap="round"/>
</svg>
